<?xml version="1.0" standalone="no"?>
<!DOCTYPE svg PUBLIC "-//W3C//DTD SVG 20010904//EN"
 "http://www.w3.org/TR/2001/REC-SVG-20010904/DTD/svg10.dtd">
<svg version="1.0" xmlns="http://www.w3.org/2000/svg"
 width="700.000000pt" height="700.000000pt" viewBox="0 0 700.000000 700.000000"
 preserveAspectRatio="xMidYMid meet">
<metadata>
Created by potrace 1.14, written by Peter Selinger 2001-2017
</metadata>
<g transform="translate(0.000000,700.000000) scale(0.100000,-0.100000)"
fill="#000000" stroke="none">
<path d="M3275 6233 c-388 -41 -678 -125 -1008 -295 -172 -88 -407 -254 -551
-387 -168 -156 -339 -357 -441 -516 -21 -33 -45 -71 -55 -85 -37 -55 -151
-281 -194 -385 -57 -141 -118 -324 -113 -338 3 -7 8 5 12 25 4 21 11 35 16 32
5 -3 11 1 13 8 16 48 70 187 72 185 2 -1 -17 -64 -41 -139 -43 -133 -86 -317
-100 -428 -4 -30 -9 -64 -12 -75 -10 -44 -13 -380 -3 -357 5 12 12 55 15 95 5
63 12 150 20 227 14 138 70 399 110 510 9 25 18 52 20 60 6 28 78 210 82 207
2 -2 -9 -35 -23 -73 -42 -112 -84 -250 -109 -364 -2 -8 -8 -35 -14 -60 -13
-60 -20 -96 -27 -150 -3 -25 -7 -52 -9 -60 -13 -53 -28 -426 -16 -414 3 3 6
24 7 47 5 121 14 265 18 287 3 14 7 45 10 70 6 47 31 189 41 228 3 12 7 31 10
43 2 11 7 29 10 39 3 10 8 27 10 37 61 279 280 703 504 973 42 50 152 162 256
259 237 221 600 430 930 534 94 30 290 76 394 92 58 9 108 18 113 21 11 7 293
6 403 -1 138 -9 161 -12 295 -40 69 -14 134 -28 146 -30 12 -3 79 -23 149 -46
198 -63 316 -116 529 -238 116 -66 320 -223 438 -337 46 -44 92 -86 104 -94
28 -20 186 -231 274 -366 203 -311 350 -717 386 -1064 3 -30 9 -80 14 -110 7
-50 5 -363 -4 -450 -11 -111 -19 -169 -26 -200 -5 -19 -11 -53 -15 -75 -25
-166 -125 -470 -214 -645 -151 -300 -278 -475 -541 -743 -159 -163 -168 -173
-75 -87 267 248 360 340 430 425 153 186 218 242 117 100 -116 -161 -325 -390
-522 -570 -108 -99 -270 -216 -392 -285 -60 -33 -81 -53 -28 -25 16 8 33 15
37 15 13 0 -84 -59 -177 -107 -103 -54 -112 -61 -40 -33 118 46 424 218 510
287 8 6 53 42 100 80 47 37 135 117 195 178 157 156 344 393 329 417 -4 6 -3
8 3 5 6 -4 18 4 27 18 19 29 20 39 4 29 -7 -4 -8 -3 -4 5 4 6 12 9 17 6 8 -6
10 -1 13 35 1 8 23 58 50 110 92 179 178 426 230 660 30 136 34 161 42 220 3
24 7 47 9 50 2 3 6 37 10 75 18 198 24 210 20 45 -2 -91 -6 -176 -8 -190 -3
-14 -11 -61 -17 -105 -6 -44 -18 -104 -25 -134 -8 -30 -10 -50 -6 -45 11 12
47 164 56 234 4 30 9 64 11 75 6 30 21 206 25 285 l2 45 7 -35 c5 -22 8 16 8
103 0 76 2 141 5 143 3 3 6 -63 6 -146 1 -103 -2 -150 -9 -145 -5 3 -10 2 -10
-4 0 -5 4 -11 8 -13 4 -1 6 -27 4 -55 -3 -36 -8 -51 -15 -47 -9 5 -9 4 -1 -5
17 -18 -29 -300 -70 -436 -18 -59 -20 -76 -5 -55 9 12 10 12 5 -3 -3 -10 -6
-24 -6 -30 0 -7 -4 -6 -10 3 -8 13 -10 12 -11 -5 -1 -11 -1 -31 0 -45 2 -21 0
-22 -9 -10 -10 12 -11 11 -7 -7 3 -13 1 -23 -4 -23 -4 0 -5 -7 -2 -17 5 -11 3
-14 -6 -8 -10 6 -11 2 -6 -15 5 -15 4 -20 -4 -16 -7 5 -9 1 -5 -8 3 -9 1 -16
-5 -16 -6 0 -8 -7 -5 -15 4 -8 -1 -17 -9 -21 -9 -3 -13 -12 -10 -20 3 -8 0
-14 -6 -14 -6 0 -8 -7 -5 -15 4 -8 1 -15 -6 -15 -6 0 -8 -4 -5 -10 3 -5 1 -10
-5 -10 -6 0 -9 -4 -6 -9 4 -5 1 -11 -4 -13 -6 -2 -12 -13 -13 -26 0 -12 -4
-22 -7 -22 -7 0 -35 -63 -32 -72 1 -5 -3 -8 -9 -8 -6 0 -8 -7 -5 -16 3 -8 2
-12 -4 -9 -9 5 -12 -1 -9 -21 0 -3 -7 -11 -17 -18 -11 -8 -14 -18 -9 -26 6 -9
4 -11 -5 -5 -10 6 -12 4 -7 -9 5 -11 3 -15 -5 -10 -8 5 -9 2 -5 -10 5 -11 3
-15 -5 -10 -8 5 -9 2 -5 -10 5 -11 3 -15 -5 -10 -8 5 -9 2 -5 -9 4 -11 0 -21
-12 -29 -11 -6 -17 -16 -15 -22 4 -10 -127 -199 -206 -297 -50 -64 -284 -297
-360 -360 -84 -70 -214 -162 -315 -224 -71 -43 -290 -157 -297 -155 -2 1 -32
-12 -68 -28 -107 -49 -402 -136 -525 -156 -16 -3 -43 -7 -60 -10 -112 -18
-152 -23 -197 -25 -21 0 -38 -5 -38 -10 0 -5 19 -7 43 -5 152 15 280 32 327
44 19 5 46 11 60 13 14 3 45 10 69 17 23 6 45 9 47 7 7 -6 -220 -63 -286 -72
-14 -2 -41 -6 -60 -9 -84 -14 -98 -16 -150 -22 -106 -10 -146 -13 -230 -15
-72 -2 -78 -3 -40 -9 102 -15 303 -8 450 15 19 3 51 8 70 11 311 48 699 200
995 392 182 117 287 204 455 372 279 279 483 598 620 972 59 161 136 478 128
523 -3 13 -1 22 3 19 5 -3 10 7 10 23 1 15 3 37 4 48 29 230 25 522 -9 770
-10 70 -27 169 -31 174 -2 4 -6 26 -10 51 -9 63 -68 262 -111 377 -188 502
-600 996 -1089 1303 -171 108 -363 200 -560 270 -91 32 -332 97 -389 105 -17
2 -76 11 -131 20 -96 16 -478 28 -570 18z m2576 -1421 c65 -137 140 -362 203
-608 30 -116 55 -254 46 -254 -3 0 -12 33 -19 73 -21 117 -69 302 -118 452
-47 145 -138 379 -157 404 -8 11 -8 13 1 8 6 -4 26 -38 44 -75z m-4718 -207
c-3 -9 -8 -14 -10 -11 -3 3 -2 9 2 15 9 16 15 13 8 -4z m-186 -307 c-3 -8 -6
-5 -6 6 -1 11 2 17 5 13 3 -3 4 -12 1 -19z m5160 -395 c-3 -10 -5 -4 -5 12 0
17 2 24 5 18 2 -7 2 -21 0 -30z m-30 -55 c-3 -8 -6 -5 -6 6 -1 11 2 17 5 13 3
-3 4 -12 1 -19z m10 -50 c-3 -8 -6 -5 -6 6 -1 11 2 17 5 13 3 -3 4 -12 1 -19z
m30 -100 c-3 -8 -6 -5 -6 6 -1 11 2 17 5 13 3 -3 4 -12 1 -19z m-20 -35 c-3
-10 -5 -4 -5 12 0 17 2 24 5 18 2 -7 2 -21 0 -30z m10 -70 c1 -22 -1 -24 -8
-10 -6 9 -7 22 -4 27 9 14 10 13 12 -17z m0 -110 c-3 -10 -5 -2 -5 17 0 19 2
27 5 18 2 -10 2 -26 0 -35z m23 -545 c-12 -57 -26 -110 -32 -118 -8 -12 -9
-12 -4 2 3 10 15 65 27 123 12 58 24 103 27 101 2 -3 -6 -51 -18 -108z m-69
-99 c-5 -13 -10 -19 -10 -12 -1 15 10 45 15 40 3 -2 0 -15 -5 -28z m21 -71
c-8 -8 -9 -4 -5 13 4 13 8 18 11 10 2 -7 -1 -18 -6 -23z m-11 -45 c-12 -20
-14 -14 -5 12 4 9 9 14 11 11 3 -2 0 -13 -6 -23z m-225 -525 c-9 -12 -16 -19
-16 -15 0 11 24 47 28 42 2 -2 -3 -14 -12 -27z m-37 -65 c-242 -405 -534 -707
-916 -947 -24 -14 -43 -24 -43 -21 0 2 19 17 43 31 201 127 506 398 654 582
43 54 81 99 84 102 11 10 116 165 153 228 21 34 40 62 43 62 2 0 -5 -17 -18
-37z m-969 -977 c0 -2 -7 -7 -16 -10 -8 -3 -12 -2 -9 4 6 10 25 14 25 6z
m-580 -246 c-8 -5 -22 -9 -30 -9 -10 0 -8 3 5 9 27 12 43 12 25 0z"/>
<path d="M3359 4063 c-81 -21 -173 -70 -236 -128 -97 -87 -96 -80 -7 -236 42
-73 78 -135 79 -137 1 -2 42 66 90 150 49 84 117 202 151 261 l64 108 -45 -2
c-24 -2 -67 -9 -96 -16z"/>
<path d="M3497 3987 c-30 -50 -67 -113 -82 -139 l-27 -48 296 0 c171 0 296 4
296 9 0 5 -18 31 -39 59 -86 108 -217 185 -353 206 l-37 6 -54 -93z"/>
<path d="M2995 3773 c-69 -170 -76 -310 -23 -450 l19 -53 161 0 160 0 -20 33
c-11 17 -75 129 -142 247 -138 241 -144 250 -155 223z"/>
<path d="M3718 3752 c-10 -2 -18 -6 -18 -8 0 -3 31 -58 69 -122 70 -118 83
-141 168 -289 25 -46 50 -83 54 -83 3 0 16 21 26 48 19 43 26 67 39 127 10 44
4 173 -10 225 -27 96 -28 100 -35 101 -16 3 -278 4 -293 1z"/>
<path d="M3762 3393 c-22 -38 -80 -138 -130 -224 -49 -86 -97 -168 -107 -182
-14 -21 -14 -27 -4 -28 110 -8 273 60 368 153 80 78 79 75 26 170 -26 46 -59
104 -74 131 -14 26 -29 47 -33 47 -4 0 -25 -30 -46 -67z"/>
<path d="M1242 3439 c2 -4 65 -72 142 -153 129 -136 140 -145 170 -141 17 2
47 6 66 9 57 7 134 18 150 21 23 4 91 14 130 19 19 3 116 16 215 30 99 14 203
28 230 31 28 3 57 8 65 10 8 3 39 7 68 10 29 3 58 6 64 8 7 1 13 -6 16 -15 4
-18 -9 -23 -403 -139 -115 -33 -268 -79 -338 -100 -71 -21 -135 -39 -143 -39
-11 0 -12 -4 -4 -19 5 -11 16 -25 23 -33 7 -7 52 -59 100 -115 l88 -102 82 30
c45 17 123 46 173 64 50 19 136 50 190 70 55 20 155 57 224 82 69 26 126 47
128 49 2 1 -10 33 -28 70 -50 109 -67 154 -100 259 l-30 100 -640 0 c-352 0
-639 -3 -638 -6z"/>
<path d="M4454 3360 c-29 -100 -61 -183 -105 -275 -17 -36 -29 -67 -28 -69 5
-3 262 -98 544 -200 116 -42 220 -81 232 -86 21 -9 33 3 130 116 60 69 109
128 110 132 2 4 -158 54 -355 111 -540 158 -542 159 -542 182 0 11 3 18 8 15
4 -2 36 -7 72 -11 35 -3 67 -8 70 -10 3 -1 32 -6 65 -9 33 -4 69 -9 80 -11 11
-2 43 -7 70 -11 28 -3 59 -7 70 -9 11 -1 58 -8 105 -14 96 -14 419 -59 466
-66 29 -4 41 5 165 136 74 78 137 146 141 153 4 8 -160 11 -633 11 l-639 0
-26 -85z"/>
<path d="M6102 3300 c0 -14 2 -19 5 -12 2 6 2 18 0 25 -3 6 -5 1 -5 -13z"/>
<path d="M3020 3220 c0 -3 18 -27 40 -53 94 -115 218 -186 366 -211 29 -5 32
-3 101 117 40 67 74 129 78 137 5 13 -31 15 -290 15 -162 0 -295 -2 -295 -5z"/>
<path d="M5806 2313 c-6 -14 -5 -15 5 -6 7 7 10 15 7 18 -3 3 -9 -2 -12 -12z"/>
<path d="M1111 2280 c14 -31 19 -36 19 -24 0 6 -7 19 -16 30 -14 18 -14 18 -3
-6z"/>
<path d="M5774 2258 c-14 -28 -15 -31 -2 -20 14 11 31 52 22 52 -2 0 -11 -15
-20 -32z"/>
<path d="M1161 2185 c172 -326 498 -687 807 -894 90 -61 76 -43 -22 27 -47 34
-100 74 -118 89 -244 210 -411 399 -577 655 -121 186 -129 196 -90 123z"/>
<path d="M5731 2184 c-12 -20 -20 -39 -17 -41 2 -3 14 13 26 36 25 51 20 54
-9 5z"/>
<path d="M5703 2068 c-15 -20 -25 -38 -20 -38 3 0 12 11 21 25 17 26 16 35 -1
13z"/>
<path d="M2593 959 c23 -14 187 -69 201 -68 10 0 -202 78 -214 78 -3 0 3 -4
13 -10z"/>
<path d="M2810 886 c0 -2 11 -6 25 -8 13 -3 22 -1 19 3 -5 9 -44 13 -44 5z"/>
<path d="M3780 870 c-9 -6 -10 -10 -3 -10 6 0 15 5 18 10 8 12 4 12 -15 0z"/>
<path d="M3838 873 c7 -3 16 -2 19 1 4 3 -2 6 -13 5 -11 0 -14 -3 -6 -6z"/>
<path d="M3713 863 c9 -2 25 -2 35 0 9 3 1 5 -18 5 -19 0 -27 -2 -17 -5z"/>
<path d="M3498 853 c6 -2 18 -2 25 0 6 3 1 5 -13 5 -14 0 -19 -2 -12 -5z"/>
<path d="M3568 853 c17 -2 47 -2 65 0 17 2 3 4 -33 4 -36 0 -50 -2 -32 -4z"/>
<path d="M3238 823 c6 -2 18 -2 25 0 6 3 1 5 -13 5 -14 0 -19 -2 -12 -5z"/>
<path d="M3298 818 c5 -5 16 -8 23 -6 8 3 3 7 -10 11 -17 4 -21 3 -13 -5z"/>
<path d="M3480 820 l-145 -6 158 -2 c86 -1 157 2 157 6 0 5 -6 8 -12 8 -7 -1
-78 -3 -158 -6z"/>
</g>
</svg>
