<?xml version="1.0" standalone="no"?>
<!DOCTYPE svg PUBLIC "-//W3C//DTD SVG 20010904//EN"
 "http://www.w3.org/TR/2001/REC-SVG-20010904/DTD/svg10.dtd">
<svg version="1.0" xmlns="http://www.w3.org/2000/svg"
 width="700.000000pt" height="700.000000pt" viewBox="0 0 700.000000 700.000000"
 preserveAspectRatio="xMidYMid meet">
<metadata>
Created by potrace 1.14, written by Peter Selinger 2001-2017
</metadata>
<g transform="translate(0.000000,700.000000) scale(0.100000,-0.100000)"
fill="#000000" stroke="none">
<path d="M3306 4554 c-133 -25 -280 -85 -393 -160 -85 -56 -209 -175 -259
-247 l-21 -31 59 -99 c32 -54 58 -100 58 -103 0 -2 17 -32 38 -66 21 -35 41
-67 43 -73 2 -5 26 -47 53 -93 43 -74 50 -81 61 -65 7 10 83 142 170 293 156
271 211 367 320 555 30 52 55 97 55 100 0 10 -110 3 -184 -11z"/>
<path d="M3447 4316 c-81 -140 -147 -258 -147 -263 0 -6 1057 -10 1103 -4 15
2 -92 147 -158 213 -117 119 -253 202 -420 256 -50 16 -117 33 -149 37 -33 4
-64 9 -70 11 -6 2 -78 -110 -159 -250z"/>
<path d="M2573 4018 c-12 -16 -68 -151 -82 -198 -42 -139 -55 -336 -32 -470
14 -79 67 -251 86 -277 12 -16 35 -18 297 -19 155 0 286 1 291 3 8 5 -3 25
-180 333 -71 124 -183 317 -248 430 -65 113 -119 206 -120 208 -1 1 -6 -3 -12
-10z"/>
<path d="M3897 3962 l-38 -3 17 -27 c16 -24 192 -325 249 -427 13 -22 46 -80
75 -130 29 -49 63 -108 75 -130 76 -134 128 -221 136 -230 12 -12 20 0 58 90
33 78 65 193 76 270 19 132 1 341 -40 461 -24 71 -49 124 -60 125 -51 2 -519
3 -548 1z"/>
<path d="M238 3430 c-26 -5 -24 -8 55 -91 45 -47 142 -149 216 -227 131 -138
135 -141 170 -136 20 3 52 7 71 10 19 2 49 6 65 9 17 3 46 7 65 9 32 4 139 19
230 32 19 3 69 9 110 15 41 6 86 12 100 14 14 2 45 7 70 10 25 3 56 8 70 10
14 2 63 9 110 15 47 6 96 13 110 16 14 2 45 7 70 10 25 3 56 7 70 9 53 8 237
35 270 39 19 2 56 7 81 11 37 6 47 4 52 -9 9 -24 -1 -43 -26 -49 -12 -2 -78
-21 -147 -42 -153 -45 -352 -104 -525 -155 -71 -21 -215 -64 -320 -95 -104
-31 -221 -66 -259 -76 -39 -11 -75 -23 -82 -27 -9 -5 33 -61 128 -172 77 -91
152 -179 167 -196 l26 -31 95 34 c52 19 104 38 115 43 11 5 72 27 135 50 166
60 221 80 260 96 19 7 123 45 230 84 107 39 239 87 292 107 l97 36 -38 76
c-56 111 -126 290 -166 427 -20 65 -39 125 -44 133 -6 12 -145 15 -952 15
-520 1 -957 -1 -971 -4z"/>
<path d="M4848 3432 c-10 -2 -22 -26 -33 -65 -41 -148 -110 -334 -176 -476
-27 -57 -49 -104 -49 -106 0 -3 28 -14 205 -79 83 -30 254 -93 380 -140 476
-175 619 -226 630 -226 6 0 29 21 52 48 221 260 283 336 276 343 -7 6 -86 31
-188 59 -16 4 -91 26 -165 48 -74 22 -211 63 -305 90 -93 28 -271 80 -395 117
-124 37 -243 73 -265 79 -33 10 -40 16 -40 36 0 21 5 25 30 24 26 0 97 -9 160
-18 11 -2 108 -16 215 -30 107 -15 208 -29 225 -32 16 -3 61 -9 100 -15 175
-24 493 -68 535 -75 19 -3 49 -7 65 -9 55 -6 130 -16 155 -20 93 -17 90 -17
122 17 17 18 92 98 167 177 75 79 145 154 156 166 11 12 34 37 52 56 l32 34
-963 0 c-529 0 -969 -1 -978 -3z"/>
<path d="M4056 3396 c-8 -14 -24 -40 -34 -58 -21 -36 -235 -405 -261 -449 -20
-34 -175 -305 -213 -372 -16 -26 -28 -50 -28 -51 0 -4 29 -1 115 9 262 31 516
174 688 386 20 25 37 51 37 58 0 7 -11 31 -24 54 -27 48 -112 195 -125 217 -6
8 -37 63 -71 123 -33 59 -62 107 -64 107 -2 0 -11 -11 -20 -24z"/>
<path d="M2615 2943 c82 -129 227 -263 379 -351 85 -50 240 -105 330 -117 23
-3 53 -8 68 -11 25 -5 30 1 81 88 105 179 237 410 237 414 0 2 -250 4 -556 4
l-556 0 17 -27z"/>
</g>
</svg>
